<?xml version="1.0" encoding="UTF-8"?><svg id="Capa_2" xmlns="http://www.w3.org/2000/svg" viewBox="0 0 1192.04 341.14"><defs><style>.cls-1{fill:#fff;}.cls-2{fill:#1d1d1b;}.cls-3{fill:#010101;}</style></defs><g id="Logos"><g><g id="Yamana"><path class="cls-1" d="M239.35,311.81c-2.95,6.25-9.23,12.52-40.85,20.45,0,0-50.75,12.73-93.77,7.7-.11-.02-.22-.03-.22-.03-.3-.05-.6-.09-.89-.13-23.05-3.43-41.03-10.86-40.15-28.14,1.05-20.46,4.73-51.49-1.13-68.8-.71-2.09-2.84-3.35-5.02-2.95-6.49,1.2-12.81,.57-17.5-6.82-10.35-16.29,15.84-105.13,16.88-108.61,.01-.05,.02-.08,.03-.1h0c.07-.28,.14-.55,.21-.82,7.83-30.46,25.74-57.37,50.8-76.38l1.31-.99s66.44,19.1,68.76,21.75c2.32,2.63,34.76,55.33,34.76,55.33,0,0,28.58,44.79,28.51,48.74-.05,3.96-1.55,67.85-.03,121.23,0,.16,0,.32,0,.48,.92,4.8,1.36,11.56-1.71,18.09Z"/><path class="cls-3" d="M99.95,3c.6-.16,1.2-.32,1.8-.47,3.34-.85,6.6-1.49,9.76-1.91-3.97,.49-7.85,1.27-11.56,2.38Z"/><path d="M281.4,193.83c-4.2,25.83-12.4,51.3-23.17,75.69-3.44,7.8-7.05,15.65-11.57,23.05-.32,.53-5.09,7.35-5.27,5.89-.12-.94-.22-2.57-.33-4.76-.85-19.45-1.28-83.43-5.38-109.25-4.58-28.75-31.43-13.64-33.72,29.23-1.04,19.61-4.36,28.82-8.92,29.6-5.55,.95-14.94-14.23-19.82-29.6-13.4-42.19,12.79-67.65-3.9-103.41-3.31-7.09-7.21-12.25-10.43-15.73-2.73-2.96-4.96-4.73-5.91-5.46-16.36-12.51-36.88-11.82-37.95-11.77-.05,0-.09,0-.14,0-11.32,.58-22.09-4.53-29.05-13.48-10.89-14-26.7-23.9-45.54-27.52-9.77-1.88-19.73-2.76-29.77-3.73-3.51-.34-7.02-.69-10.54-1.09,1.86-5.58,6.98-7.2,11.97-8.08,6.65-1.16,13.45-1.72,20.2-1.95,14.41-.49,28.14-3.56,41.49-9.05,8.57-3.53,17.29-6.97,26.22-9.4,.03,0,.05,0,.07-.02,.6-.16,1.2-.32,1.8-.47,3.34-.85,6.6-1.49,9.76-1.91,.13-.01,.27-.03,.41-.05C114.96,.21,118.05,.02,121.17,0c18.84-.19,38.54,5.41,52.17,13.99,45.28,28.47,88.51,71.3,106.36,117.28,7.57,19.45,4.94,42.6,1.7,62.56Z"/><path d="M121.17,0c-3.12,.02-6.21,.21-9.25,.57C115.09,.16,118.18-.03,121.17,0Z"/><path class="cls-1" d="M110.29,27.4c0,3.87-3.14,7.01-7.01,7.01s-7.01-3.14-7.01-7.01,3.14-7.01,7.01-7.01,7.01,3.14,7.01,7.01Z"/></g><g id="Text"><path class="cls-2" d="M427.2,224.57c-3.7,0-7.08-.9-10.12-2.7-3.05-1.8-5.48-4.25-7.28-7.35-1.8-3.1-2.7-6.5-2.7-10.2v-7.2h18v6.6c0,.7,.27,1.33,.83,1.88,.55,.55,1.17,.83,1.88,.83h66.3c.8,0,1.47-.27,2.03-.83,.55-.55,.83-1.17,.83-1.88v-21.45c0-.8-.28-1.45-.83-1.95-.55-.5-1.23-.75-2.03-.75h-66.9c-3.7,0-7.08-.9-10.12-2.7-3.05-1.8-5.48-4.22-7.28-7.27-1.8-3.05-2.7-6.42-2.7-10.12v-22.65c0-3.7,.9-7.1,2.7-10.2,1.8-3.1,4.22-5.55,7.28-7.35,3.05-1.8,6.42-2.7,10.12-2.7h67.65c3.7,0,7.07,.9,10.12,2.7,3.05,1.8,5.5,4.25,7.35,7.35,1.85,3.1,2.77,6.5,2.77,10.2v7.2h-18.15v-6.6c0-.7-.28-1.32-.83-1.88-.55-.55-1.23-.83-2.03-.83h-66.3c-.7,0-1.33,.28-1.88,.83-.55,.55-.83,1.18-.83,1.88v21.45c0,.8,.27,1.45,.83,1.95,.55,.5,1.17,.75,1.88,.75h67.05c3.7,0,7.07,.9,10.12,2.7,3.05,1.8,5.5,4.23,7.35,7.27,1.85,3.05,2.77,6.43,2.77,10.12v22.65c0,3.7-.93,7.1-2.77,10.2-1.85,3.1-4.3,5.55-7.35,7.35-3.05,1.8-6.43,2.7-10.12,2.7h-67.65Z"/><path class="cls-2" d="M540.45,224.57V116.57h18v45h74.4v-45h18v108h-18v-45h-74.4v45h-18Z"/><path class="cls-2" d="M675.75,224.57V116.57h17.85v108h-17.85Z"/><path class="cls-2" d="M718.35,224.57V116.57h99.15v18.15h-81v26.85h65.25v18h-65.25v45h-18.15Z"/><path class="cls-2" d="M876.6,224.57v-89.85h-45v-18.15h108v18.15h-45v89.85h-18Z"/><path class="cls-2" d="M960.15,224.57V116.57h99.15v18.15h-81v26.85h65.25v18h-65.25v26.85h81v18.15h-99.15Z"/><path class="cls-2" d="M1084.04,224.57V116.57h87.75c3.7,0,7.07,.9,10.12,2.7,3.05,1.8,5.5,4.25,7.35,7.35,1.85,3.1,2.77,6.5,2.77,10.2v67.5c0,3.7-.93,7.1-2.77,10.2-1.85,3.1-4.3,5.55-7.35,7.35-3.05,1.8-6.43,2.7-10.12,2.7h-87.75Zm20.7-18.15h66.45c.7,0,1.32-.27,1.88-.83s.82-1.17,.82-1.88v-66.3c0-.7-.28-1.32-.82-1.88-.55-.55-1.18-.83-1.88-.83h-66.45c-.8,0-1.48,.28-2.02,.83s-.82,1.18-.82,1.88v66.3c0,.7,.27,1.33,.82,1.88,.55,.55,1.22,.83,2.02,.83Z"/></g></g></g></svg>